<svg xmlns="http://www.w3.org/2000/svg" width="1311" height="1380" viewBox="0 0 1311 1380" font-family="ui-monospace,Menlo,monospace" font-size="11"><style>.lbl{fill:#cbd5e1}.dim{fill:#64748b}.stage{fill:none;stroke:#475569;stroke-width:1.5;stroke-dasharray:6 3}.fxt{fill:#7c3aed}.cam{fill:#0ea5e9;fill-opacity:.6;stroke:#38bdf8;stroke-width:1.2}.fov{fill:#0ea5e9;fill-opacity:.07;stroke:#0ea5e9;stroke-opacity:.35;stroke-width:1}.mk{fill:#fbbf24;stroke:#a16207;stroke-width:0.8}.home{fill:#fde047;stroke:#854d0e;stroke-width:1.5}.probe-line{stroke-width:1.4;fill:none;opacity:.85}.probe-line-conf{stroke:#22c55e}.probe-line-rej{stroke:#ef4444}.probe-line-pend{stroke:#94a3b8}.probe-hit{fill:#22c55e;stroke:#14532d;stroke-width:.6}.probe-hit-rej{fill:#ef4444}.probe-hit-pend{fill:#94a3b8}.probe-num{fill:#0f172a;font-weight:bold;font-size:9px}</style><rect x="0" y="0" width="1311" height="1380" fill="#0f172a"/><rect class="stage" x="330.0" y="330.0" width="651.5999999999999" height="720.0"/><text class="dim" x="334.0" y="344.0">stage 0,0</text><text class="dim" x="871.5999999999999" y="1046.0">stage 3620,4000</text><polygon class="fov" points="499.2,1030.1999999999998 1008.3168824543142,521.0831175456858 -9.916882454314148,521.0831175456858"/><circle class="cam" cx="499.2" cy="1030.1999999999998" r="6"/><text class="lbl" x="508.2" y="1024.1999999999998">cam #12 Stage Right</text><polygon class="fov" points="641.4,1030.1999999999998 1150.516882454314,521.0831175456858 132.28311754568585,521.0831175456858"/><circle class="cam" cx="641.4" cy="1030.1999999999998" r="6"/><text class="lbl" x="650.4" y="1024.1999999999998">cam #13 Stage Left</text><polygon class="fov" points="753.0,749.4 1262.1168824543142,240.28311754568577 243.88311754568585,240.28311754568577"/><circle class="cam" cx="753.0" cy="749.4" r="6"/><text class="lbl" x="762.0" y="743.4">cam #16 Out Left</text><circle class="mk" cx="420.0" cy="639.6" r="5"/><text class="lbl" x="428.0" y="643.6">id 0 Back Right</text><circle class="mk" cx="699.0" cy="479.4" r="5"/><text class="lbl" x="707.0" y="483.4">id 1 Furnace Door</text><circle class="mk" cx="537.0" cy="672.0" r="5"/><text class="lbl" x="545.0" y="676.0">id 2 Pillar Base</text><circle class="dim" cx="537.0" cy="639.6" r="5"/><text class="lbl" x="545.0" y="643.6">id 3 Pillar Post</text><circle class="mk" cx="420.0" cy="420.0" r="5"/><text class="lbl" x="428.0" y="424.0">id 4 Stairs</text><circle class="mk" cx="891.6" cy="493.8" r="5"/><text class="lbl" x="899.6" y="497.8">id 5 Patent</text><polygon class="fxt" points="438.0,1041.0 431.0,1056.0 445.0,1056.0"/><text class="lbl" x="449.0" y="1054.0">fixture #17 (z=1760mm)</text><g transform="translate(60,1310)"><rect width="540" height="58" fill="#1e293b" fill-opacity=".85" rx="4"/><text class="lbl" x="10" y="18">fixture #17  home pan_dmx16=44364 tilt_dmx16=0  pan_range=540° tilt_range=180°</text><text class="dim" x="10" y="36">9 probes captured · floor z=0mm · rotation=[0, 0, 0] · mountedInverted=True</text><text class="dim" x="10" y="51"><tspan fill="#fde047">★</tspan> home aim   <tspan fill="#fbbf24">●</tspan> floor markers   <tspan fill="#0ea5e9">●</tspan> cameras   <tspan fill="#94a3b8">●</tspan> probe hit (numbered)</text></g></svg>